Coordinates
version=1
nRows=17
nColumns=24
inDegrees=yes

Units are S.I. units (second, meters, Newtons, ...)
Angles are in degrees.

endheader
time	pelvis_tilt	pelvis_list	pelvis_rotation	pelvis_tx	pelvis_ty	pelvis_tz	hip_flexion_r	hip_adduction_r	hip_rotation_r	knee_angle_r	ankle_angle_r	subtalar_angle_r	mtp_angle_r	hip_flexion_l	hip_adduction_l	hip_rotation_l	knee_angle_l	ankle_angle_l	subtalar_angle_l	mtp_angle_l	lumbar_extension	lumbar_bending	lumbar_rotation
      0.95850000	      4.34626076	     -2.25300685	     -1.55804778	     -0.36229961	      1.07828593	      0.30191013	      1.48389287	      8.20320279	     -3.81879001	     -8.83003088	     -0.44604017	     -8.42755807	      7.25988153	      7.59413047	     -3.60396793	     -0.92647389	    -60.44792636	     -2.50520262	     -7.44396282	     21.70397841	     -0.29012325	      6.86240864	      0.54324150
      0.96266667	      4.36703275	     -2.27848543	     -1.64408096	     -0.35741345	      1.07886364	      0.30237272	      1.00703868	      8.25446939	     -3.64682029	     -8.51018838	     -0.40507829	     -8.32218369	      7.25760570	      8.09903876	     -3.58254692	     -0.68369538	    -60.15478439	     -2.19848531	     -7.74146202	     21.55604099	     -0.32698142	      6.82639715	      0.66598383
      0.96683333	      4.37983747	     -2.24920158	     -1.83383885	     -0.35254071	      1.07944976	      0.30270835	      0.57137601	      8.21491577	     -3.55006985	     -8.26959532	     -0.33414327	     -8.24386458	      7.24928239	      8.56923618	     -3.47657177	     -0.53723191	    -59.78604319	     -1.67138916	     -8.31826423	     21.24807598	     -0.40287091	      6.84991325	      0.90217828
      0.97100000	      4.41083659	     -2.24515066	     -1.97538762	     -0.34768412	      1.08001793	      0.30312827	      0.09295659	      8.21774585	     -3.38952742	     -7.97054670	     -0.27598879	     -8.14520065	      7.23966490	      9.02115941	     -3.41271345	     -0.34794307	    -59.37751559	     -1.28779897	     -8.81089011	     20.91194281	     -0.45175187	      6.84797772	      1.15167979
      0.97516667	      4.41469531	     -2.23911844	     -2.12514834	     -0.34284175	      1.08053040	      0.30351870	     -0.35104111	      8.21532965	     -3.23441351	     -7.68099317	     -0.22315976	     -8.06830612	      7.22682100	      9.49096410	     -3.34389452	     -0.16600883	    -58.92705527	     -0.94210885	     -9.29010688	     20.52533640	     -0.50195501	      6.84429287	      1.40666589
      0.97933333	      4.42655659	     -2.23158361	     -2.27080669	     -0.33801043	      1.08102596	      0.30391670	     -0.80700924	      8.21054436	     -3.07007914	     -7.38153811	     -0.17585858	     -8.00197690	      7.21229150	      9.93853562	     -3.27429501	      0.02143974	    -58.42632022	     -0.62130452	     -9.74350351	     20.13391518	     -0.54679360	      6.83296818	      1.63821909
      0.98350000	      4.40882551	     -2.25031942	     -2.34734412	     -0.33322043	      1.08141511	      0.30433001	     -1.24221254	      8.24807947	     -2.89364196	     -7.04797702	     -0.14769197	     -7.92705848	      7.20800772	     10.43283893	     -3.24027122	      0.27959427	    -57.91095330	     -0.41937543	     -9.97042495	     19.99735271	     -0.55802340	      6.80539717	      1.73073000
      0.98766667	      4.39166564	     -2.23899956	     -2.47896232	     -0.32836830	      1.08180989	      0.30471854	     -1.67275025	      8.23927313	     -2.72468273	     -6.74150009	     -0.10242575	     -7.88159066	      7.20090853	     10.88701844	     -3.16909440	      0.47334437	    -57.32898873	     -0.06543654	    -10.39200887	     19.81650715	     -0.53704839	      6.77634439	      1.86599525
      0.99183333	      4.36904060	     -2.20882946	     -2.71069947	     -0.32361774	      1.08218575	      0.30510395	     -2.06150501	      8.19158854	     -2.57252960	     -6.50461913	     -0.04535899	     -7.87174937	      7.18004075	     11.31976781	     -3.08035489	      0.56184160	    -56.68222275	      0.24600021	    -11.08356853	     19.37685805	     -0.61412309	      6.79007132	      2.16119440
      0.99600000	      4.36144193	     -2.19776409	     -2.84635917	     -0.31877441	      1.08254010	      0.30545616	     -2.50295201	      8.17496010	     -2.39773917	     -6.19126287	      0.00380798	     -7.83240122	      7.15509043	     11.73438781	     -3.00836048	      0.74605724	    -55.99738088	      0.44772333	    -11.60134317	     18.87601051	     -0.59567751	      6.78538398	      2.45186303
      1.00016667	      4.30261614	     -2.19872205	     -2.93765560	     -0.31405872	      1.08275068	      0.30571564	     -2.86988121	      8.17304533	     -2.27862720	     -5.90308904	      0.02672298	     -7.78289396	      7.15242704	     12.22026027	     -2.94470071	      0.99974886	    -55.29867331	      0.55573673	    -11.70449847	     18.80810042	     -0.65869495	      6.79872174	      2.48570167
      1.00433333	      4.27881094	     -2.19509468	     -3.11670289	     -0.30925198	      1.08302496	      0.30615339	     -3.28659119	      8.16523421	     -2.06980655	     -5.60531588	      0.08936059	     -7.76920472	      7.12686688	     12.61983619	     -2.89980377	      1.10803311	    -54.54158600	      0.88148216	    -12.44380432	     18.35112360	     -0.62087442	      6.76581004	      2.74839215
      1.00850000	      4.25076944	     -2.21872079	     -3.16156369	     -0.30447901	      1.08320295	      0.30645199	     -3.71436432	      8.19852034	     -1.90632130	     -5.26049296	      0.12090741	     -7.70580990	      7.11942287	     13.04716440	     -2.86670959	      1.37845952	    -53.76886871	      0.98326746	    -12.64513402	     18.20394830	     -0.57694207	      6.77601496	      2.83683817
      1.01266667	      4.18250601	     -2.20226369	     -3.37479836	     -0.29968446	      1.08335039	      0.30679164	     -4.06237066	      8.15853020	     -1.74176774	     -5.00837863	      0.18378150	     -7.72684746	      7.08830275	     13.46091517	     -2.80576159	      1.46294170	    -52.91266715	      1.16181072	    -13.40347534	     17.70707663	     -0.57546099	      6.77150725	      3.10079974
      1.01683333	      4.17252707	     -2.22237911	     -3.47836624	     -0.29502099	      1.08349135	      0.30708668	     -4.49462528	      8.17119784	     -1.51265028	     -4.69027185	      0.21666584	     -7.67487397	      6.99641700	     13.83623021	     -2.77583060	      1.65297437	    -52.03927494	      0.94657521	    -14.17857919	     16.31955185	     -0.72156426	      6.81022098	      3.60529821
      1.02100000	      4.11567277	     -2.22705963	     -3.56866707	     -0.29021968	      1.08355472	      0.30725869	     -4.86454484	      8.16031195	     -1.45504397	     -4.41036748	      0.25333015	     -7.64805764	      6.99134071	     14.23384339	     -2.71845818	      1.88692829	    -51.12440792	      1.10485381	    -14.22841480	     16.24029640	     -0.66823347	      6.87981267	      3.60594650
      1.02516667	      4.04195575	     -2.23978349	     -3.74294525	     -0.28536793	      1.08358275	      0.30761538	     -5.23062834	      8.15690077	     -1.23629710	     -4.11341739	      0.34168291	     -7.62741050	      6.79686672	     14.61432915	     -2.70333588	      1.96814977	    -50.14250640	      0.84034252	    -15.19205723	     13.63734344	     -0.50460224	      6.99408671	      3.89367643
